<svg width="32" height="32" viewBox="0 0 32 32" fill="none" xmlns="http://www.w3.org/2000/svg">
<rect width="32" height="32" fill="#F5B6B6"/>
<g id="&#208;&#147;&#208;&#190;&#208;&#187;&#208;&#190;&#208;&#178;&#208;&#189;&#208;&#176;" clip-path="url(#clip0_0_1)">
<rect width="1400" height="5261" transform="translate(-172 -1423)" fill="#2D2E2F"/>
<g id="1 &#208;&#187;&#209;&#150;&#208;&#189;&#209;&#150;&#209;&#143;">
<g id="&#208;&#146;&#209;&#150;&#208;&#180;&#209;&#129;&#209;&#130;&#208;&#181;&#208;&#182;&#209;&#131;&#208;&#178;&#208;&#176;&#209;&#130;&#208;&#184;">
<rect x="-24" y="-24" width="320" height="138" rx="10" fill="#9A9494"/>
<g id="&#208;&#190;&#208;&#186;&#208;&#190;">
<path id="Vector" d="M15.9999 12C14.9391 12 13.9216 12.4214 13.1715 13.1716C12.4213 13.9217 11.9999 14.9391 11.9999 16C11.9999 17.0609 12.4213 18.0783 13.1715 18.8284C13.9216 19.5786 14.9391 20 15.9999 20C17.0608 20 18.0782 19.5786 18.8283 18.8284C19.5785 18.0783 19.9999 17.0609 19.9999 16C19.9999 14.9391 19.5785 13.9217 18.8283 13.1716C18.0782 12.4214 17.0608 12 15.9999 12ZM15.9999 22.6667C14.2318 22.6667 12.5361 21.9643 11.2859 20.714C10.0356 19.4638 9.33325 17.7681 9.33325 16C9.33325 14.2319 10.0356 12.5362 11.2859 11.286C12.5361 10.0357 14.2318 9.33333 15.9999 9.33333C17.768 9.33333 19.4637 10.0357 20.714 11.286C21.9642 12.5362 22.6666 14.2319 22.6666 16C22.6666 17.7681 21.9642 19.4638 20.714 20.714C19.4637 21.9643 17.768 22.6667 15.9999 22.6667ZM15.9999 6C9.33325 6 3.63992 10.1467 1.33325 16C3.63992 21.8533 9.33325 26 15.9999 26C22.6666 26 28.3599 21.8533 30.6666 16C28.3599 10.1467 22.6666 6 15.9999 6Z" fill="#D3CCCC"/>
</g>
</g>
</g>
</g>
<defs>
<clipPath id="clip0_0_1">
<rect width="1400" height="5261" fill="white" transform="translate(-172 -1423)"/>
</clipPath>
</defs>
</svg>
