<svg width="28" height="24" viewBox="0 0 28 24" fill="none" xmlns="http://www.w3.org/2000/svg">
<g clip-path="url(#clip0_51_677)">
<mask id="path-1-inside-1_51_677" fill="white">
<path d="M26.5625 4.87501H15.1619L11.4855 1.2479C11.2863 1.04972 11.049 0.892593 10.7877 0.785659C10.5263 0.678726 10.246 0.624119 9.96304 0.625011H2.87015C2.29892 0.625011 1.75108 0.848894 1.34716 1.24741C0.943231 1.64592 0.716309 2.18642 0.716309 2.75001V21.9573C0.717021 22.4989 0.935379 23.018 1.3235 23.4009C1.71161 23.7839 2.23781 23.9993 2.78669 24H26.6823C27.2215 23.9993 27.7385 23.7876 28.1198 23.4114C28.5011 23.0353 28.7156 22.5252 28.7163 21.9932V7.00001C28.7163 6.43642 28.4894 5.89592 28.0855 5.49741C27.6815 5.09889 27.1337 4.87501 26.5625 4.87501ZM9.96304 2.75001L12.1169 4.87501H2.87015V2.75001H9.96304ZM26.5625 21.875H2.87015V7.00001H26.5625V21.875Z"/>
</mask>
<path d="M26.5625 4.87501H15.1619L11.4855 1.2479C11.2863 1.04972 11.049 0.892593 10.7877 0.785659C10.5263 0.678726 10.246 0.624119 9.96304 0.625011H2.87015C2.29892 0.625011 1.75108 0.848894 1.34716 1.24741C0.943231 1.64592 0.716309 2.18642 0.716309 2.75001V21.9573C0.717021 22.4989 0.935379 23.018 1.3235 23.4009C1.71161 23.7839 2.23781 23.9993 2.78669 24H26.6823C27.2215 23.9993 27.7385 23.7876 28.1198 23.4114C28.5011 23.0353 28.7156 22.5252 28.7163 21.9932V7.00001C28.7163 6.43642 28.4894 5.89592 28.0855 5.49741C27.6815 5.09889 27.1337 4.87501 26.5625 4.87501ZM9.96304 2.75001L12.1169 4.87501H2.87015V2.75001H9.96304ZM26.5625 21.875H2.87015V7.00001H26.5625V21.875Z" fill="#CAC9C9"/>
<path d="M15.1619 4.87501L11.6503 8.4343L13.1105 9.87501H15.1619V4.87501ZM11.4855 1.2479L7.95976 4.79316L7.96683 4.80019L7.97392 4.80719L11.4855 1.2479ZM9.96304 0.625011V5.62501H9.97092L9.9788 5.62499L9.96304 0.625011ZM2.87015 0.625011V-4.37499V0.625011ZM0.716309 2.75001H-4.28369H0.716309ZM0.716309 21.9573H-4.2837L-4.28369 21.9639L0.716309 21.9573ZM2.78669 24L2.78029 29H2.78669V24ZM26.6823 24V29L26.6888 29L26.6823 24ZM28.7163 21.9932L33.7163 21.9999V21.9932H28.7163ZM9.96304 2.75001L13.4747 -0.80928L12.0144 -2.24999H9.96304V2.75001ZM12.1169 4.87501V9.87501H24.304L15.6285 1.31572L12.1169 4.87501ZM2.87015 4.87501H-2.12985V9.87501H2.87015V4.87501ZM2.87015 2.75001V-2.24999H-2.12985V2.75001H2.87015ZM26.5625 21.875V26.875H31.5625V21.875H26.5625ZM2.87015 21.875H-2.12985V26.875H2.87015V21.875ZM2.87015 7.00001V2.00001H-2.12985V7.00001H2.87015ZM26.5625 7.00001H31.5625V2.00001H26.5625V7.00001ZM26.5625 -0.124991H15.1619V9.87501H26.5625V-0.124991ZM18.6735 1.31572L14.9972 -2.31139L7.97392 4.80719L11.6503 8.4343L18.6735 1.31572ZM15.0113 -2.29736C14.3423 -2.96274 13.5495 -3.48667 12.681 -3.84202L8.89438 5.41334C8.54856 5.27186 8.23026 5.06218 7.95976 4.79316L15.0113 -2.29736ZM12.681 -3.84202C11.8125 -4.19732 10.8835 -4.37792 9.94728 -4.37496L9.9788 5.62499C9.60849 5.62615 9.24007 5.55477 8.89438 5.41334L12.681 -3.84202ZM9.96304 -4.37499H2.87015V5.62501H9.96304V-4.37499ZM2.87015 -4.37499C0.994429 -4.37499 -0.817834 -3.64047 -2.16446 -2.31188L4.85877 4.8067C4.31999 5.33826 3.60341 5.62501 2.87015 5.62501V-4.37499ZM-2.16446 -2.31188C-3.51338 -0.981034 -4.28369 0.838421 -4.28369 2.75001H5.71631C5.71631 3.53443 5.39984 4.27288 4.85877 4.8067L-2.16446 -2.31188ZM-4.28369 2.75001V21.9573H5.71631V2.75001H-4.28369ZM-4.28369 21.9639C-4.2812 23.8511 -3.51962 25.6466 -2.18812 26.9602L4.83512 19.8417C5.39038 20.3895 5.71525 21.1466 5.7163 21.9508L-4.28369 21.9639ZM-2.18812 26.9602C-0.858889 28.2717 0.92912 28.9976 2.78029 29L2.7931 19C3.5465 19.001 4.28212 19.2961 4.83512 19.8417L-2.18812 26.9602ZM2.78669 29H26.6823V19H2.78669V29ZM26.6888 29C28.5303 28.9976 30.309 28.2754 31.6314 26.9707L24.6081 19.8522C25.1679 19.2999 25.9127 19.001 26.6758 19L26.6888 29ZM31.6314 26.9707C32.956 25.6638 33.7138 23.8776 33.7163 21.9999L23.7163 21.9865C23.7174 21.1729 24.0461 20.4067 24.6081 19.8522L31.6314 26.9707ZM33.7163 21.9932V7.00001H23.7163V21.9932H33.7163ZM33.7163 7.00001C33.7163 5.08841 32.946 3.26896 31.5971 1.93812L24.5738 9.0567C24.0328 8.52288 23.7163 7.78443 23.7163 7.00001H33.7163ZM31.5971 1.93812C30.2505 0.609528 28.4382 -0.124991 26.5625 -0.124991V9.87501C25.8292 9.87501 25.1126 9.58826 24.5738 9.0567L31.5971 1.93812ZM6.45142 6.3093L8.60527 8.4343L15.6285 1.31572L13.4747 -0.80928L6.45142 6.3093ZM12.1169 -0.124991H2.87015V9.87501H12.1169V-0.124991ZM7.87015 4.87501V2.75001H-2.12985V4.87501H7.87015ZM2.87015 7.75001H9.96304V-2.24999H2.87015V7.75001ZM26.5625 16.875H2.87015V26.875H26.5625V16.875ZM7.87015 21.875V7.00001H-2.12985V21.875H7.87015ZM2.87015 12H26.5625V2.00001H2.87015V12ZM21.5625 7.00001V21.875H31.5625V7.00001H21.5625Z" fill="#CAC9C9" mask="url(#path-1-inside-1_51_677)"/>
</g>
<defs>
<clipPath id="clip0_51_677">
<rect width="28" height="24" fill="white"/>
</clipPath>
</defs>
</svg>
