<svg width="24" height="24" viewBox="0 0 24 24" fill="none" xmlns="http://www.w3.org/2000/svg">
<mask id="path-1-inside-1_51_686" fill="white">
<path d="M14.0468 18.0262L8.74269 15.2784C8.05021 15.9816 7.15107 16.4707 6.16212 16.6821C5.17316 16.8936 4.14012 16.8175 3.19725 16.464C2.25438 16.1104 1.44528 15.4955 0.875094 14.6994C0.304906 13.9033 0 12.9626 0 11.9997C0 11.0368 0.304906 10.0962 0.875094 9.30004C1.44528 8.50391 2.25438 7.88909 3.19725 7.53549C4.14012 7.1819 5.17316 7.10587 6.16212 7.3173C7.15107 7.52872 8.05021 8.01782 8.74269 8.72103L14.048 5.97329C13.7473 4.84055 13.8918 3.6425 14.4544 2.60373C15.0171 1.56495 15.9592 0.756759 17.1043 0.330658C18.2494 -0.095443 19.5188 -0.110201 20.6746 0.289151C21.8303 0.688502 22.793 1.47454 23.3823 2.49993C23.9715 3.52532 24.1468 4.71964 23.8753 5.85903C23.6039 6.99843 22.9042 8.00465 21.9076 8.68908C20.9109 9.37352 19.6857 9.68917 18.4616 9.57687C17.2375 9.46458 16.0985 8.93204 15.2581 8.07909L9.95281 10.8268C10.1564 11.5964 10.1564 12.4019 9.95281 13.1714L15.2581 15.9192C16.0989 15.0666 17.2381 14.5346 18.4623 14.4229C19.6865 14.3112 20.9115 14.6274 21.9078 15.3122C22.9041 15.9971 23.6032 17.0036 23.8741 18.1431C24.1451 19.2826 23.9692 20.4768 23.3795 21.5019C22.7898 22.527 21.8267 23.3127 20.6708 23.7115C19.5149 24.1104 18.2456 24.0952 17.1007 23.6686C15.9558 23.2421 15.014 22.4336 14.4518 21.3946C13.8896 20.3556 13.7456 19.1576 14.0468 18.025V18.0262ZM5.05296 14.3989C5.72299 14.3989 6.36557 14.1461 6.83935 13.696C7.31314 13.246 7.5793 12.6356 7.5793 11.9991C7.5793 11.3627 7.31314 10.7523 6.83935 10.3022C6.36557 9.85218 5.72299 9.59935 5.05296 9.59935C4.38293 9.59935 3.74034 9.85218 3.26656 10.3022C2.79278 10.7523 2.52661 11.3627 2.52661 11.9991C2.52661 12.6356 2.79278 13.246 3.26656 13.696C3.74034 14.1461 4.38293 14.3989 5.05296 14.3989ZM18.9479 7.19957C19.6179 7.19957 20.2605 6.94674 20.7343 6.4967C21.208 6.04665 21.4742 5.43626 21.4742 4.7998C21.4742 4.16334 21.208 3.55295 20.7343 3.1029C20.2605 2.65286 19.6179 2.40002 18.9479 2.40002C18.2778 2.40002 17.6353 2.65286 17.1615 3.1029C16.6877 3.55295 16.4215 4.16334 16.4215 4.7998C16.4215 5.43626 16.6877 6.04665 17.1615 6.4967C17.6353 6.94674 18.2778 7.19957 18.9479 7.19957ZM18.9479 21.5982C19.6179 21.5982 20.2605 21.3454 20.7343 20.8953C21.208 20.4453 21.4742 19.8349 21.4742 19.1985C21.4742 18.562 21.208 17.9516 20.7343 17.5016C20.2605 17.0515 19.6179 16.7987 18.9479 16.7987C18.2778 16.7987 17.6353 17.0515 17.1615 17.5016C16.6877 17.9516 16.4215 18.562 16.4215 19.1985C16.4215 19.8349 16.6877 20.4453 17.1615 20.8953C17.6353 21.3454 18.2778 21.5982 18.9479 21.5982Z"/>
</mask>
<path d="M14.0468 18.0262L8.74269 15.2784C8.05021 15.9816 7.15107 16.4707 6.16212 16.6821C5.17316 16.8936 4.14012 16.8175 3.19725 16.464C2.25438 16.1104 1.44528 15.4955 0.875094 14.6994C0.304906 13.9033 0 12.9626 0 11.9997C0 11.0368 0.304906 10.0962 0.875094 9.30004C1.44528 8.50391 2.25438 7.88909 3.19725 7.53549C4.14012 7.1819 5.17316 7.10587 6.16212 7.3173C7.15107 7.52872 8.05021 8.01782 8.74269 8.72103L14.048 5.97329C13.7473 4.84055 13.8918 3.6425 14.4544 2.60373C15.0171 1.56495 15.9592 0.756759 17.1043 0.330658C18.2494 -0.095443 19.5188 -0.110201 20.6746 0.289151C21.8303 0.688502 22.793 1.47454 23.3823 2.49993C23.9715 3.52532 24.1468 4.71964 23.8753 5.85903C23.6039 6.99843 22.9042 8.00465 21.9076 8.68908C20.9109 9.37352 19.6857 9.68917 18.4616 9.57687C17.2375 9.46458 16.0985 8.93204 15.2581 8.07909L9.95281 10.8268C10.1564 11.5964 10.1564 12.4019 9.95281 13.1714L15.2581 15.9192C16.0989 15.0666 17.2381 14.5346 18.4623 14.4229C19.6865 14.3112 20.9115 14.6274 21.9078 15.3122C22.9041 15.9971 23.6032 17.0036 23.8741 18.1431C24.1451 19.2826 23.9692 20.4768 23.3795 21.5019C22.7898 22.527 21.8267 23.3127 20.6708 23.7115C19.5149 24.1104 18.2456 24.0952 17.1007 23.6686C15.9558 23.2421 15.014 22.4336 14.4518 21.3946C13.8896 20.3556 13.7456 19.1576 14.0468 18.025V18.0262ZM5.05296 14.3989C5.72299 14.3989 6.36557 14.1461 6.83935 13.696C7.31314 13.246 7.5793 12.6356 7.5793 11.9991C7.5793 11.3627 7.31314 10.7523 6.83935 10.3022C6.36557 9.85218 5.72299 9.59935 5.05296 9.59935C4.38293 9.59935 3.74034 9.85218 3.26656 10.3022C2.79278 10.7523 2.52661 11.3627 2.52661 11.9991C2.52661 12.6356 2.79278 13.246 3.26656 13.696C3.74034 14.1461 4.38293 14.3989 5.05296 14.3989ZM18.9479 7.19957C19.6179 7.19957 20.2605 6.94674 20.7343 6.4967C21.208 6.04665 21.4742 5.43626 21.4742 4.7998C21.4742 4.16334 21.208 3.55295 20.7343 3.1029C20.2605 2.65286 19.6179 2.40002 18.9479 2.40002C18.2778 2.40002 17.6353 2.65286 17.1615 3.1029C16.6877 3.55295 16.4215 4.16334 16.4215 4.7998C16.4215 5.43626 16.6877 6.04665 17.1615 6.4967C17.6353 6.94674 18.2778 7.19957 18.9479 7.19957ZM18.9479 21.5982C19.6179 21.5982 20.2605 21.3454 20.7343 20.8953C21.208 20.4453 21.4742 19.8349 21.4742 19.1985C21.4742 18.562 21.208 17.9516 20.7343 17.5016C20.2605 17.0515 19.6179 16.7987 18.9479 16.7987C18.2778 16.7987 17.6353 17.0515 17.1615 17.5016C16.6877 17.9516 16.4215 18.562 16.4215 19.1985C16.4215 19.8349 16.6877 20.4453 17.1615 20.8953C17.6353 21.3454 18.2778 21.5982 18.9479 21.5982Z" fill="#CAC9C9"/>
<path d="M14.0468 18.0262L11.7468 22.4658L19.0468 26.2475V18.0262H14.0468ZM8.74269 15.2784L11.0426 10.8388L7.76784 9.1423L5.18007 11.7702L8.74269 15.2784ZM0 11.9997H5H0ZM8.74269 8.72103L5.18007 12.2293L7.76757 14.8569L11.0422 13.1609L8.74269 8.72103ZM14.048 5.97329L16.3475 10.4131L19.9102 8.56797L18.8806 4.69019L14.048 5.97329ZM15.2581 8.07909L18.8199 4.56998L16.2324 1.94367L12.9586 3.63923L15.2581 8.07909ZM9.95281 10.8268L7.65331 6.38698L4.09375 8.23055L5.11916 12.1058L9.95281 10.8268ZM9.95281 13.1714L5.11916 11.8924L4.09375 15.7677L7.65331 17.6113L9.95281 13.1714ZM15.2581 15.9192L12.9586 20.359L16.2307 22.0537L18.8181 19.43L15.2581 15.9192ZM14.0468 18.025H19.0468L9.2147 16.74L14.0468 18.025ZM7.5793 11.9991H12.5793H7.5793ZM2.52661 11.9991H-2.47339H2.52661ZM18.9479 7.19957V12.1996V7.19957ZM18.9479 2.40002V-2.59998V2.40002ZM18.9479 16.7987V21.7987V16.7987ZM16.3467 13.5865L11.0426 10.8388L6.44276 19.718L11.7468 22.4658L16.3467 13.5865ZM5.18007 11.7702C5.18632 11.7638 5.18567 11.7663 5.17437 11.7725C5.16303 11.7786 5.14383 11.7869 5.11681 11.7926L7.20742 21.5717C9.12745 21.1612 10.9091 20.2045 12.3053 18.7867L5.18007 11.7702ZM5.11681 11.7926C5.05796 11.8052 4.99714 11.7989 4.95296 11.7823L1.44155 21.1456C3.28311 21.8362 5.28836 21.9819 7.20742 21.5717L5.11681 11.7926ZM4.95296 11.7823C4.93307 11.7749 4.92322 11.7679 4.92151 11.7666C4.91988 11.7653 4.92791 11.7711 4.94009 11.7881L-3.1899 17.6107C-2.02536 19.2367 -0.40166 20.4543 1.44155 21.1456L4.95296 11.7823ZM4.94009 11.7881C4.96687 11.8255 5 11.8995 5 11.9997H-5C-5 14.0258 -4.35706 15.9811 -3.1899 17.6107L4.94009 11.7881ZM5 11.9997C5 12.0999 4.96687 12.174 4.94009 12.2114L-3.1899 6.38872C-4.35706 8.01838 -5 9.97369 -5 11.9997H5ZM4.94009 12.2114C4.92791 12.2284 4.91988 12.2341 4.92152 12.2329C4.92322 12.2316 4.93307 12.2246 4.95296 12.2171L1.44155 2.85388C-0.401663 3.54512 -2.02536 4.76271 -3.1899 6.38872L4.94009 12.2114ZM4.95296 12.2171C4.99714 12.2005 5.05796 12.1942 5.11681 12.2068L7.20742 2.42779C5.28836 2.01752 3.28311 2.16326 1.44155 2.85388L4.95296 12.2171ZM5.11681 12.2068C5.14383 12.2126 5.16303 12.2208 5.17437 12.227C5.18567 12.2331 5.18632 12.2356 5.18007 12.2293L12.3053 5.21279C10.9091 3.79492 9.12745 2.83826 7.20742 2.42779L5.11681 12.2068ZM11.0422 13.1609L16.3475 10.4131L11.7485 1.53343L6.44319 4.28117L11.0422 13.1609ZM18.8806 4.69019C18.8939 4.74052 18.8981 4.79656 18.8915 4.85196C18.8848 4.90723 18.8685 4.95265 18.8509 4.98508L10.0579 0.222373C8.89339 2.37234 8.58458 4.88029 9.21546 7.25639L18.8806 4.69019ZM18.8509 4.98508C18.8337 5.01677 18.8185 5.03066 18.8163 5.03252C18.8143 5.03423 18.8235 5.02588 18.8481 5.01674L15.3606 -4.35543C13.124 -3.52317 11.2181 -1.91952 10.0579 0.222373L18.8509 4.98508ZM18.8481 5.01674C18.9053 4.99544 18.981 4.99404 19.0416 5.01498L22.3075 -4.43668C20.0566 -5.21445 17.5935 -5.18633 15.3606 -4.35543L18.8481 5.01674ZM19.0416 5.01498C19.0677 5.02401 19.0789 5.03303 19.0786 5.0328C19.0782 5.03243 19.064 5.02065 19.0471 4.99118L27.7174 0.00868203C26.5047 -2.10158 24.5618 -3.65773 22.3075 -4.43668L19.0416 5.01498ZM19.0471 4.99118C19.0297 4.96097 19.0126 4.91734 19.0046 4.8629C18.9966 4.8083 18.9992 4.7519 19.0115 4.70014L28.7392 7.01793C29.3092 4.62559 28.9348 2.12703 27.7174 0.00868203L19.0471 4.99118ZM19.0115 4.70014C19.0373 4.592 19.0885 4.55959 19.0771 4.56741L24.7381 12.8108C26.72 11.4497 28.1705 9.40485 28.7392 7.01793L19.0115 4.70014ZM19.0771 4.56741C19.071 4.5716 19.0533 4.58192 19.0225 4.58986C18.9916 4.5978 18.9557 4.60121 18.9184 4.59778L18.0048 14.556C20.37 14.7729 22.7619 14.1679 24.7381 12.8108L19.0771 4.56741ZM18.9184 4.59778C18.8811 4.59436 18.8524 4.58509 18.8337 4.57635C18.8151 4.56765 18.8125 4.56245 18.8199 4.56998L11.6964 11.5882C13.3894 13.3066 15.6388 14.3389 18.0048 14.556L18.9184 4.59778ZM12.9586 3.63923L7.65331 6.38698L12.2523 15.2667L17.5576 12.5189L12.9586 3.63923ZM5.11916 12.1058C5.10099 12.0371 5.10099 11.9611 5.11916 11.8924L14.7865 14.4504C15.2119 12.8426 15.2119 11.1556 14.7865 9.54784L5.11916 12.1058ZM7.65331 17.6113L12.9586 20.359L17.5576 11.4793L12.2523 8.73156L7.65331 17.6113ZM18.8181 19.43C18.8108 19.4375 18.8134 19.4323 18.832 19.4236C18.8507 19.4149 18.8795 19.4056 18.9168 19.4022L18.0078 9.4436C15.6418 9.65955 13.392 10.6907 11.6981 12.4083L18.8181 19.43ZM18.9168 19.4022C18.9541 19.3988 18.99 19.4022 19.0209 19.4102C19.0517 19.4181 19.0693 19.4284 19.0754 19.4326L24.7402 11.1919C22.7647 9.83384 20.373 9.22773 18.0078 9.4436L18.9168 19.4022ZM19.0754 19.4326C19.0867 19.4404 19.0355 19.4079 19.0097 19.2997L28.7385 16.9865C28.1709 14.5994 26.7215 12.5538 24.7402 11.1919L19.0754 19.4326ZM19.0097 19.2997C18.9974 19.2479 18.9949 19.1915 19.0029 19.1369C19.0109 19.0825 19.0281 19.0389 19.0454 19.0087L27.7135 23.9951C28.9318 21.8774 29.3074 19.3791 28.7385 16.9865L19.0097 19.2997ZM19.0454 19.0087C19.0624 18.9793 19.0765 18.9675 19.0769 18.9672C19.0771 18.967 19.066 18.976 19.0398 18.9851L22.3019 28.438C24.5564 27.66 26.4999 26.1048 27.7135 23.9951L19.0454 19.0087ZM19.0398 18.9851C18.9791 19.006 18.9035 19.0045 18.8463 18.9832L15.3551 28.354C17.5877 29.1858 20.0507 29.2149 22.3019 28.438L19.0398 18.9851ZM18.8463 18.9832C18.8217 18.9741 18.8126 18.9658 18.8146 18.9675C18.8168 18.9694 18.8321 18.9833 18.8492 19.015L10.0543 23.7742C11.2136 25.9165 13.1189 27.5209 15.3551 28.354L18.8463 18.9832ZM18.8492 19.015C18.8668 19.0475 18.8831 19.0929 18.8898 19.1482C18.8964 19.2036 18.8922 19.2597 18.8788 19.31L9.2147 16.74C8.5829 19.1157 8.89067 21.6238 10.0543 23.7742L18.8492 19.015ZM9.04676 18.025V18.0262H19.0468V18.025H9.04676ZM5.05296 19.3989C6.96851 19.3989 8.85405 18.6785 10.2829 17.3212L3.3958 10.0708C3.87709 9.61366 4.47746 9.3989 5.05296 9.3989V19.3989ZM10.2829 17.3212C11.7205 15.9556 12.5793 14.047 12.5793 11.9991H2.5793C2.5793 11.2242 2.90577 10.5363 3.3958 10.0708L10.2829 17.3212ZM12.5793 11.9991C12.5793 9.95123 11.7205 8.04261 10.2829 6.67705L3.3958 13.9274C2.90577 13.4619 2.5793 12.7741 2.5793 11.9991H12.5793ZM10.2829 6.67705C8.85405 5.31977 6.96851 4.59935 5.05296 4.59935V14.5993C4.47746 14.5993 3.87709 14.3846 3.3958 13.9274L10.2829 6.67705ZM5.05296 4.59935C3.1374 4.59935 1.25186 5.31977 -0.176996 6.67705L6.71011 13.9274C6.22882 14.3846 5.62846 14.5993 5.05296 14.5993V4.59935ZM-0.176996 6.67705C-1.61459 8.04261 -2.47339 9.95123 -2.47339 11.9991H7.52661C7.52661 12.7741 7.20014 13.4619 6.71011 13.9274L-0.176996 6.67705ZM-2.47339 11.9991C-2.47339 14.047 -1.61459 15.9556 -0.176996 17.3212L6.71011 10.0708C7.20014 10.5363 7.52661 11.2242 7.52661 11.9991H-2.47339ZM-0.176996 17.3212C1.25186 18.6785 3.1374 19.3989 5.05296 19.3989V9.3989C5.62846 9.3989 6.22882 9.61366 6.71011 10.0708L-0.176996 17.3212ZM18.9479 12.1996C20.8634 12.1996 22.749 11.4791 24.1778 10.1219L17.2907 2.87152C17.772 2.41433 18.3724 2.19957 18.9479 2.19957V12.1996ZM24.1778 10.1219C25.6154 8.75631 26.4742 6.84769 26.4742 4.7998H16.4742C16.4742 4.02483 16.8007 3.33699 17.2907 2.87152L24.1778 10.1219ZM26.4742 4.7998C26.4742 2.7519 25.6154 0.843285 24.1778 -0.52228L17.2907 6.72808C16.8007 6.26261 16.4742 5.57477 16.4742 4.7998H26.4742ZM24.1778 -0.52228C22.749 -1.87955 20.8634 -2.59998 18.9479 -2.59998V7.40002C18.3724 7.40002 17.772 7.18526 17.2907 6.72808L24.1778 -0.52228ZM18.9479 -2.59998C17.0323 -2.59998 15.1468 -1.87955 13.7179 -0.52228L20.605 6.72808C20.1237 7.18526 19.5234 7.40002 18.9479 7.40002V-2.59998ZM13.7179 -0.52228C12.2803 0.843285 11.4215 2.7519 11.4215 4.7998H21.4215C21.4215 5.57477 21.0951 6.26261 20.605 6.72808L13.7179 -0.52228ZM11.4215 4.7998C11.4215 6.84769 12.2803 8.75631 13.7179 10.1219L20.605 2.87152C21.0951 3.33699 21.4215 4.02483 21.4215 4.7998H11.4215ZM13.7179 10.1219C15.1468 11.4791 17.0323 12.1996 18.9479 12.1996V2.19957C19.5234 2.19957 20.1237 2.41433 20.605 2.87152L13.7179 10.1219ZM18.9479 26.5982C20.8634 26.5982 22.749 25.8778 24.1778 24.5205L17.2907 17.2702C17.772 16.813 18.3724 16.5982 18.9479 16.5982V26.5982ZM24.1778 24.5205C25.6154 23.155 26.4742 21.2463 26.4742 19.1985H16.4742C16.4742 18.4235 16.8007 17.7356 17.2907 17.2702L24.1778 24.5205ZM26.4742 19.1985C26.4742 17.1506 25.6154 15.2419 24.1778 13.8764L17.2907 21.1267C16.8007 20.6613 16.4742 19.9734 16.4742 19.1985H26.4742ZM24.1778 13.8764C22.749 12.5191 20.8634 11.7987 18.9479 11.7987V21.7987C18.3724 21.7987 17.772 21.5839 17.2907 21.1267L24.1778 13.8764ZM18.9479 11.7987C17.0323 11.7987 15.1468 12.5191 13.7179 13.8764L20.605 21.1267C20.1237 21.5839 19.5234 21.7987 18.9479 21.7987V11.7987ZM13.7179 13.8764C12.2803 15.2419 11.4215 17.1506 11.4215 19.1985H21.4215C21.4215 19.9734 21.0951 20.6613 20.605 21.1267L13.7179 13.8764ZM11.4215 19.1985C11.4215 21.2463 12.2803 23.155 13.7179 24.5205L20.605 17.2702C21.0951 17.7356 21.4215 18.4235 21.4215 19.1985H11.4215ZM13.7179 24.5205C15.1468 25.8778 17.0323 26.5982 18.9479 26.5982V16.5982C19.5234 16.5982 20.1237 16.813 20.605 17.2702L13.7179 24.5205Z" fill="#CAC9C9" mask="url(#path-1-inside-1_51_686)"/>
</svg>
