<svg width="32" height="31" viewBox="0 0 32 31" fill="none" xmlns="http://www.w3.org/2000/svg">
<path d="M30.4282 11.4513L30.4576 11.4556L30.4872 11.4581C30.603 11.468 30.7131 11.5111 30.8044 11.582C30.8859 11.6454 30.9491 11.7284 30.9884 11.8226C31.008 11.92 31.0028 12.021 30.9728 12.1162C30.9392 12.223 30.8758 12.3185 30.7896 12.3914L30.7642 12.4129L30.7402 12.436L24.1412 18.8111L23.7588 19.1805L23.8512 19.7041L25.4491 28.7567L25.449 28.7567L25.4516 28.7704C25.4727 28.8813 25.4617 28.9959 25.4196 29.1007C25.3775 29.2057 25.3061 29.2968 25.2133 29.363L25.2092 29.366C25.1066 29.4401 24.9828 29.48 24.8555 29.4795L24.8487 29.4795C24.764 29.4798 24.6809 29.4581 24.6074 29.4168L24.5944 29.4095L24.5812 29.4025L16.4323 25.1312L15.9698 24.8888L15.5066 25.1298L7.32574 29.3852L7.32573 29.3851L7.3197 29.3883C7.22135 29.4403 7.1102 29.4641 6.9988 29.4567C6.88755 29.4493 6.78079 29.4111 6.69045 29.3468C6.5979 29.2806 6.5266 29.1896 6.48459 29.0848C6.44252 28.9799 6.43146 28.8653 6.45262 28.7545L6.45272 28.7545L6.45514 28.7408L8.05297 19.6882L8.14538 19.1646L7.76299 18.7951L1.17064 12.4265C1.09608 12.3508 1.04336 12.2569 1.0177 12.1545C0.992352 12.0534 0.994267 11.9474 1.02319 11.8473C1.0582 11.7458 1.12038 11.6552 1.20346 11.5857C1.28898 11.514 1.39319 11.4676 1.50432 11.4518L1.50432 11.4518L1.50963 11.451L10.6013 10.1123L11.1192 10.036L11.3516 9.56688L15.4261 1.34301L15.4261 1.34302L15.4296 1.33585C15.4782 1.23566 15.5544 1.1508 15.6496 1.09127C15.7449 1.03171 15.8552 1 15.9681 1C16.0809 1 16.1913 1.03171 16.2865 1.09126C16.3818 1.1508 16.4579 1.23566 16.5066 1.33585L16.5065 1.33586L16.5097 1.34232L20.5842 9.58213L20.8169 10.0528L21.3366 10.1285L30.4282 11.4513ZM22.814 18.6243L22.8194 18.6191L22.8247 18.6138L27.6182 13.8484L29.0389 12.4361L27.0562 12.1495L20.3294 11.1773L20.3294 11.1773L20.3238 11.1765C20.2265 11.163 20.1342 11.126 20.055 11.0688C19.9758 11.0116 19.9121 10.9361 19.8693 10.8491L19.8688 10.848L16.8649 4.75978L15.9446 2.8947L15.0625 4.77809L12.2234 10.8396C12.1806 10.9239 12.1182 10.9971 12.0409 11.0528C11.9617 11.11 11.8694 11.1471 11.7722 11.1606L11.7722 11.1606L11.7666 11.1614L5.03971 12.1336L3.06118 12.4195L4.47655 13.8313L9.27002 18.6126L9.27592 18.6185L9.28191 18.6243C9.35188 18.6918 9.40402 18.7752 9.43401 18.867C9.464 18.9588 9.471 19.0564 9.45444 19.1514L9.45412 19.1533L8.30368 25.8312L7.95772 27.8394L9.75785 26.8844L15.7657 23.6968L15.7661 23.6966C15.8527 23.6506 15.9495 23.6264 16.048 23.6264C16.1464 23.6264 16.2432 23.6506 16.3299 23.6966L16.3303 23.6968L22.3381 26.8844L24.1382 27.8394L23.7922 25.8312L22.6418 19.1533L22.6415 19.1514C22.6249 19.0564 22.6319 18.9588 22.6619 18.867C22.6919 18.7751 22.7441 18.6918 22.814 18.6243Z" fill="#D7D1D1" stroke="#D3CCCC" stroke-width="2"/>
</svg>
